# xmcd CD database file
#
# Track frame offsets:
#	150
#	19537
#	35915
#	53790
#	70932
#	94185
#	116472
#	133465
#	151630
#	168357
#	187045
#	205000
#	225230
#	245023
#	265458
#	283835
#	305667
#	324950
#
# Disc length: 4559 seconds
#
# Revision: 0
# Processed by: cddbd v1.4PL0 Copyright (c) Steve Scherf et al.
# Submitted via: CDex 1.50Beta7
#
DISCID=0011cd12
DTITLE=Toni Braxton - More Than a Woman
DYEAR=2002
DGENRE=Rhythmic Soul
TTITLE0=Let Me Show You the Way (Out)
TTITLE1=Give It Back
TTITLE2=A Better Man
TTITLE3=Hit the Freeway
TTITLE4=Lies, Lies, Lies
TTITLE5=Rock Me, Roll Me
TTITLE6=Selfish
TTITLE7=Do You Remember When
TTITLE8=Me and My Boyfriend
TTITLE9=Tell Me
TTITLE10=And I Love You
TTITLE11=Always
TTITLE12=He Wasn't Man Enough
TTITLE13=Unbreak My Heart
TTITLE14=Gimme Some
TTITLE15=Spanish Guitar
TTITLE16=I'll Still Breathing 
TTITLE17=Speaking In Tongues
EXTD=YEAR: 2002
EXTT0=
EXTT1=
EXTT2=
EXTT3=
EXTT4=
EXTT5=
EXTT6=
EXTT7=
EXTT8=
EXTT9=
EXTT10=
EXTT11=
EXTT12=
EXTT13=
EXTT14=
EXTT15=
EXTT16=
EXTT17=
PLAYORDER=
